<?xml version="1.0" standalone="no"?>
<!DOCTYPE svg PUBLIC "-//W3C//DTD SVG 20010904//EN"
 "http://www.w3.org/TR/2001/REC-SVG-20010904/DTD/svg10.dtd">
<svg version="1.0" xmlns="http://www.w3.org/2000/svg"
 width="1024.000000pt" height="1024.000000pt" viewBox="0 0 1024.000000 1024.000000"
 preserveAspectRatio="xMidYMid meet">

<g transform="translate(0.000000,1024.000000) scale(0.100000,-0.100000)"
fill="#000000" stroke="none">
<path d="M4790 8194 c-743 -105 -1384 -524 -1764 -1153 -166 -274 -269 -551
-327 -879 -30 -170 -37 -465 -15 -641 30 -235 110 -526 218 -796 339 -846 998
-1734 1805 -2432 131 -114 272 -219 325 -243 58 -26 124 -25 179 3 104 52 381
281 608 502 851 827 1460 1791 1680 2660 56 222 66 306 65 575 0 272 -8 349
-60 555 -91 365 -270 719 -502 995 -329 392 -768 670 -1256 795 -216 55 -313
67 -596 71 -188 2 -283 -1 -360 -12z m600 -245 c383 -42 819 -227 1115 -474
465 -387 748 -920 806 -1520 14 -143 7 -364 -16 -490 -153 -844 -731 -1815
-1582 -2656 -241 -239 -399 -378 -540 -476 l-53 -36 -55 38 c-153 105 -488
409 -694 629 -647 691 -1116 1437 -1324 2106 -139 446 -160 738 -81 1130 154
759 704 1392 1430 1643 319 111 639 145 994 106z"/>
<path d="M4945 7453 c-436 -53 -780 -222 -1070 -525 -131 -136 -212 -251 -296
-423 -130 -265 -180 -478 -180 -770 -1 -442 160 -852 464 -1187 141 -155 335
-298 541 -399 l108 -54 -6 -89 c-3 -49 -6 -121 -7 -160 -1 -39 -4 -62 -7 -50
-10 30 -48 74 -64 74 -8 0 -23 9 -33 20 -10 11 -21 17 -25 15 -4 -3 -13 2 -20
10 -7 8 -19 15 -28 15 -8 0 -21 8 -29 18 -8 9 -12 11 -8 5 4 -8 1 -11 -9 -7
-9 3 -12 13 -9 22 5 14 3 15 -7 5 -11 -10 -20 -6 -47 22 -32 33 -45 40 -67 36
-4 -1 -14 4 -22 10 -8 7 -17 9 -21 5 -4 -3 -15 6 -25 21 -10 16 -18 21 -18 13
0 -10 -3 -11 -11 -3 -6 6 -17 9 -24 7 -7 -3 -16 0 -21 7 -4 7 -3 10 4 5 6 -3
14 -1 18 5 4 8 3 9 -4 5 -7 -4 -12 -3 -12 2 0 4 -16 7 -34 6 -27 -2 -36 1 -41
16 -3 11 -11 19 -18 17 -6 -1 -11 4 -12 12 0 8 -13 15 -29 17 -43 4 -86 25
-86 40 0 8 -7 14 -15 14 -11 0 -14 -7 -11 -25 3 -14 -1 -28 -7 -32 -17 -11
-16 -63 1 -63 8 0 11 -7 8 -18 -4 -11 2 -27 13 -39 11 -11 17 -24 14 -27 -4
-3 0 -6 8 -6 11 0 11 -2 -1 -10 -13 -8 -12 -10 3 -10 11 0 17 -6 15 -16 -2 -9
6 -21 17 -28 11 -6 22 -12 25 -14 2 -2 -2 -7 -10 -12 -12 -7 -11 -10 5 -17 11
-4 21 -19 23 -33 1 -14 7 -26 12 -28 6 -2 10 -15 10 -28 0 -13 5 -24 11 -24 6
0 8 -7 5 -16 -5 -14 -4 -15 9 -4 13 11 14 8 9 -17 -5 -24 -1 -34 20 -51 26
-20 20 -42 -6 -25 -7 4 4 -15 24 -42 20 -28 42 -50 49 -50 7 0 14 -7 16 -15 4
-13 3 -13 -6 0 -6 8 -11 11 -11 7 0 -9 12 -25 183 -232 223 -270 505 -561 737
-760 122 -104 163 -135 181 -135 21 1 174 127 342 284 168 157 395 397 550
582 120 142 273 339 257 329 -15 -9 -3 33 15 55 14 16 55 95 55 105 0 3 -5 3
-11 -1 -6 -3 -3 8 5 25 9 17 19 31 22 31 3 0 2 -5 -2 -12 -5 -7 -3 -8 5 -3 7
4 10 16 8 27 -4 14 -2 18 9 14 8 -3 13 -2 10 2 -2 4 4 31 14 59 13 38 15 54 6
63 -8 9 -7 11 4 10 30 -4 39 0 35 20 -2 11 3 24 13 30 9 5 12 10 5 10 -6 0
-10 8 -8 18 2 9 4 19 4 22 1 3 6 -2 11 -10 8 -12 10 -9 10 12 0 14 6 29 13 31
10 4 10 6 0 6 -7 1 -13 8 -13 16 0 8 -6 15 -14 15 -8 0 -16 4 -18 10 -1 5 -13
7 -26 3 -13 -3 -21 -11 -18 -18 3 -8 -2 -16 -10 -19 -9 -3 -12 -1 -9 4 3 6 1
10 -4 10 -6 0 -11 -7 -11 -16 0 -8 -4 -13 -9 -9 -6 3 -15 -3 -20 -14 -7 -13
-17 -17 -31 -14 -12 3 -20 0 -20 -6 0 -7 -6 -11 -12 -10 -29 3 -40 -2 -34 -16
3 -8 0 -15 -7 -15 -7 0 -47 -20 -89 -44 -43 -24 -80 -41 -83 -38 -3 3 -5 0 -5
-8 0 -10 -4 -10 -17 1 -11 10 -14 10 -9 2 7 -12 -13 -19 -39 -13 -5 1 -7 -2
-3 -6 10 -9 -32 -45 -44 -38 -5 3 -1 12 9 21 17 13 16 13 -5 3 -12 -6 -20 -15
-17 -20 6 -10 -33 -25 -58 -21 -9 1 -29 -6 -45 -17 -31 -22 -71 -37 -89 -34
-7 2 -13 -2 -13 -9 0 -6 -8 -9 -20 -6 -11 3 -20 0 -20 -5 0 -6 -12 -8 -29 -5
-15 3 -50 -1 -76 -8 -26 -8 -51 -12 -55 -10 -5 3 -11 1 -15 -5 -3 -5 -21 -10
-40 -10 -19 0 -37 -5 -40 -10 -3 -5 -26 -10 -50 -10 -24 0 -46 -4 -49 -9 -4
-5 -36 -9 -72 -10 -36 0 -72 -5 -78 -11 -7 -5 -15 -7 -19 -4 -8 9 -106 10
-100 2 2 -5 -7 -8 -21 -8 -24 0 -89 -30 -110 -51 -6 -5 -18 -9 -27 -9 -9 0
-22 -7 -29 -15 -7 -8 -21 -15 -32 -15 -11 0 -35 -12 -55 -27 -28 -21 -7 13 95
157 l130 185 169 6 c253 9 458 61 678 171 487 244 837 697 944 1225 48 236 48
460 0 697 -74 364 -267 701 -541 944 -321 285 -724 434 -1158 430 -74 0 -148
-3 -165 -5z m531 -383 c24 -10 26 -14 20 -50 -3 -21 -62 -277 -131 -567 -69
-290 -128 -540 -132 -555 l-5 -28 346 0 c220 0 354 -4 367 -10 44 -24 64 10
-473 -772 -104 -150 -279 -406 -391 -568 -189 -276 -204 -295 -232 -295 -30 0
-30 1 -28 50 0 28 31 174 67 325 35 151 90 380 120 508 31 128 56 240 56 248
0 12 -56 14 -377 14 -211 0 -384 4 -392 9 -12 8 -13 14 -2 37 16 35 1111 1647
1125 1656 15 10 30 10 62 -2z m-1681 -2880 c3 -5 2 -10 -4 -10 -5 0 -13 5 -16
10 -3 6 -2 10 4 10 5 0 13 -4 16 -10z m2628 -124 c4 -10 1 -13 -8 -9 -8 3 -12
9 -9 14 7 12 11 11 17 -5z"/>
<path d="M3748 4243 c7 -3 16 -2 19 1 4 3 -2 6 -13 5 -11 0 -14 -3 -6 -6z"/>
<path d="M3728 4213 c7 -3 16 -2 19 1 4 3 -2 6 -13 5 -11 0 -14 -3 -6 -6z"/>
<path d="M6455 4060 c3 -5 8 -10 11 -10 2 0 4 5 4 10 0 6 -5 10 -11 10 -5 0
-7 -4 -4 -10z"/>
<path d="M6355 3830 c-3 -5 -1 -10 4 -10 6 0 11 5 11 10 0 6 -2 10 -4 10 -3 0
-8 -4 -11 -10z"/>
</g>
</svg>
